<?xml version="1.0" encoding="iso-8859-1"?>
<!-- Generator: Adobe Illustrator 19.0.0, SVG Export Plug-In . SVG Version: 6.00 Build 0)  -->
<svg version="1.1" id="Layer_1" xmlns="http://www.w3.org/2000/svg" xmlns:xlink="http://www.w3.org/1999/xlink" x="0px" y="0px"
	 viewBox="0 0 511.992 511.992" style="enable-background:new 0 0 511.992 511.992;" xml:space="preserve">
<polygon style="fill:#E6E9ED;" points="497.992,276.844 470.664,241.516 422.664,210.187 362.664,204.851 321.992,221.516 
	283.336,245.32 264.664,227.562 220.664,221.516 191.539,245.32 174.742,288 147.992,296.844 117.992,328.187 109.992,385.516 
	133.992,423.516 202.664,434.187 340.664,434.187 425.336,426.844 465.336,402.187 502.664,342.844 "/>
<path style="fill:#FFCE54;" d="M250.508,174.516l-49.516-33c0,0-28-2-45,0s-39,13.297-39,13.297l-33,30.703l-7,38.469l9,59.531
	l26,30.984l24-14.984L174.742,288l11.25-34.484l20-29.531l34-5.133h32.5L250.508,174.516z"/>
<path d="M170.664,117.32c5.891,0,10.672-4.773,10.672-10.664v-32c0-5.891-4.781-10.664-10.672-10.664S160,68.765,160,74.656v32
	C160,112.547,164.773,117.32,170.664,117.32z"/>
<path d="M50,129.07l22.609,22.609l0.008,0.008c4.164,4.164,10.914,4.164,15.086,0c4.164-4.164,4.164-10.914,0-15.086l0,0
	L65.07,113.976l0,0l0,0c-4.164-4.164-10.914-4.164-15.086,0c-4.164,4.164-4.164,10.922,0,15.086
	C49.984,129.062,49.992,129.07,50,129.07z"/>
<path d="M42.664,245.32c5.891,0,10.672-4.773,10.672-10.664s-4.773-10.664-10.672-10.664l0,0l-32-0.008v0.008l0,0
	C4.773,223.992,0,228.765,0,234.656s4.773,10.664,10.664,10.664c0.008,0,0.008,0,0.008,0H42.664L42.664,245.32L42.664,245.32
	L42.664,245.32L42.664,245.32z"/>
<path d="M87.703,317.625c-4.172-4.156-10.922-4.172-15.086,0h-0.008L49.984,340.25l0,0l0,0c-4.164,4.156-4.164,10.922,0,15.094
	c4.172,4.156,10.922,4.156,15.086,0l0.008-0.016l22.625-22.625l0,0C91.867,328.531,91.867,321.781,87.703,317.625z"/>
<path d="M268.719,151.687L268.719,151.687L268.719,151.687l22.617-22.625l0,0l0,0c4.188-4.164,4.188-10.922,0-15.086
	c-4.156-4.164-10.906-4.164-15.062,0h-0.016l-22.617,22.617l-0.008,0.008c-4.164,4.172-4.164,10.922,0,15.086
	S264.555,155.851,268.719,151.687z"/>
<path d="M382.68,189.328c-37.281,0-70.875,15.781-94.484,41.016c-3.547-4.078-7.547-7.734-11.953-10.883
	c-7.375-51.711-51.828-91.469-105.578-91.469c-58.906,0-106.664,47.75-106.664,106.664c0,35.625,17.461,67.156,44.281,86.516
	c-6.469,12.109-10.141,25.922-10.141,40.594c0,47.609,38.602,86.234,86.219,86.234h198.32c71.406,0,129.312-57.906,129.312-129.344
	C511.992,247.226,454.086,189.328,382.68,189.328z M110.328,295c-16.117-16.125-24.992-37.555-24.992-60.344
	c0-22.797,8.875-44.227,24.992-60.344s37.547-24.992,60.336-24.992c22.797,0,44.227,8.875,60.344,24.992
	c9.711,9.719,16.789,21.367,20.883,34.078c-5.078-1.188-10.359-1.82-15.797-1.82c-38.094,0-68.977,30.883-68.977,68.977
	c0,0.578,0.008,1.141,0.023,1.719c-18.281,3.703-34.461,13.203-46.555,26.484C116.976,301.125,113.547,298.219,110.328,295z
	 M459.023,395.031c-20.375,20.391-47.5,31.625-76.344,31.625h-198.32c-35.773,0-64.883-29.109-64.883-64.891
	c0-15.047,5.273-29.734,14.844-41.297c9.461-11.453,22.617-19.375,37.055-22.281l17.531-3.562l-0.438-17.875
	c-0.016-0.406-0.016-0.812-0.016-1.203c0-26.273,21.367-47.641,47.641-47.641c13.812,0,26.93,5.984,35.992,16.43l15.531,17.883
	l16.156-17.305c10.016-10.703,21.844-19.133,35.188-25.039c13.781-6.117,28.484-9.211,43.719-9.211
	c28.844,0,55.969,11.227,76.344,31.625c20.406,20.398,31.641,47.523,31.641,76.367S479.43,374.625,459.023,395.031z"/>
<g>
</g>
<g>
</g>
<g>
</g>
<g>
</g>
<g>
</g>
<g>
</g>
<g>
</g>
<g>
</g>
<g>
</g>
<g>
</g>
<g>
</g>
<g>
</g>
<g>
</g>
<g>
</g>
<g>
</g>
</svg>
